<?xml version="1.0" encoding="UTF-8" standalone="no"?>
<!-- Created with Inkscape (http://www.inkscape.org/) -->

<svg
   width="60.107159mm"
   height="21.119955mm"
   viewBox="0 0 60.107158 21.119955"
   version="1.1"
   id="svg5"
   xml:space="preserve"
   xmlns="http://www.w3.org/2000/svg"
   xmlns:svg="http://www.w3.org/2000/svg"><defs
     id="defs2" /><g
     id="layer1"
     transform="translate(-71.903639,-59.295431)"><path
       style="fill:#000000;fill-opacity:1;stroke:none;stroke-width:0.0211313;stroke-opacity:1"
       d="m 121.86848,80.048389 c 0.002,-1.744364 -0.0638,-8.888066 -0.11777,-9.654632 -0.0224,-0.280694 -0.0407,-0.525192 -0.0407,-0.543328 0,-0.02792 -0.0275,-0.03462 -0.17938,-0.04369 -0.31336,-0.01872 -0.70719,-0.156278 -1.33844,-0.467499 l -0.21885,-0.107899 -0.13991,0.04565 c -0.91408,0.298271 -1.97018,0.237538 -2.79022,-0.160458 -0.77562,-0.376438 -1.24631,-0.975477 -1.28867,-1.640094 l -0.0149,-0.233281 -0.21839,-0.160366 c -1.15732,-0.849817 -1.13855,-2.210969 0.0417,-3.025438 0.10966,-0.07567 0.25559,-0.1658 0.32428,-0.200282 l 0.12489,-0.06269 5.8e-4,-0.217041 c 6.6e-4,-0.242328 0.0421,-0.413411 0.15884,-0.65621 0.14958,-0.311002 0.35066,-0.540506 0.69512,-0.793385 0.56203,-0.412594 1.29068,-0.62771 2.08265,-0.614859 l 0.31977,0.0052 0.0339,-0.122444 c 0.10493,-0.378714 0.43266,-0.800388 0.83161,-1.069994 0.24159,-0.163261 0.4275,-0.255026 0.74646,-0.368441 0.45782,-0.162788 0.90995,-0.229614 1.41296,-0.208839 0.89904,0.03713 1.76334,0.395918 2.24192,0.930664 0.067,0.0749 0.12516,0.138578 0.12916,0.141497 0.004,0.0029 0.0968,-0.02728 0.20625,-0.06711 0.67438,-0.245461 1.49196,-0.288253 2.20151,-0.115228 0.7538,0.183813 1.39617,0.605218 1.72509,1.131685 0.0915,0.146507 0.0661,0.134744 0.37552,0.173599 0.51894,0.06516 1.09953,0.303969 1.5154,0.62331 0.71047,0.545557 0.9714,1.360756 0.66259,2.070065 l -0.0576,0.132349 0.11705,0.105234 c 0.24234,0.217886 0.4633,0.571292 0.55592,0.889176 0.0521,0.178888 0.0594,0.580187 0.0139,0.764024 -0.075,0.302842 -0.27528,0.650191 -0.50691,0.87917 -0.28614,0.282855 -0.74087,0.554419 -1.15566,0.690151 l -0.18767,0.06141 -0.0313,0.136633 c -0.12124,0.528709 -0.55167,1.034383 -1.15599,1.358086 -0.32346,0.173261 -0.81127,0.324087 -1.22084,0.377468 -0.38496,0.05017 -1.02605,0.01493 -1.39154,-0.0765 -0.1746,-0.04368 -0.50528,-0.155676 -0.64066,-0.216985 l -0.09,-0.04073 -0.47995,0.360256 c -0.26398,0.19814 -0.51427,0.474448 -0.58443,0.529362 -0.0749,2.438683 -0.14314,8.80765 -0.12553,9.341975 0,0 0.0611,0.252509 -0.37752,0.259566 -0.2193,0.03015 -1.35061,0.01883 -1.69115,0.0078 -0.36912,-0.01509 -0.34047,-0.02287 -0.47309,-0.146933 z m 2.35366,-10.261662 c 0.20574,-0.06933 0.55585,-0.239265 0.74177,-0.360023 l 0.12371,-0.08035 -0.077,-0.06032 c -0.12176,-0.09539 -0.27872,-0.276408 -0.39521,-0.455786 -0.10278,-0.158248 -0.23275,-0.46323 -0.23288,-0.546449 -1e-4,-0.06154 -0.0319,-0.06283 -0.18856,-0.0077 -0.08,0.02819 -0.16798,0.05638 -0.19543,0.06265 -0.042,0.0096 -0.0665,0.06343 -0.15515,0.340884 -0.0579,0.181215 -0.12191,0.398513 -0.14229,0.482884 -0.0433,0.179219 -0.0513,0.492923 -0.0143,0.563261 0.0743,0.141432 0.24041,0.160336 0.53538,0.06093 z m -1.34002,-0.408869 c 0.13459,-0.07722 0.32974,-0.477517 0.39753,-0.815396 l 0.0172,-0.08573 h -0.3502 c -0.42318,0 -0.72632,-0.04007 -1.07308,-0.141859 -0.13061,-0.03834 -0.23748,-0.06542 -0.23748,-0.06017 0,0.0052 0.0841,0.126746 0.18692,0.270001 0.51846,0.722433 0.82787,0.96583 1.05912,0.833148 z m -1.09758,-0.191192 c 0,-0.0066 -0.12491,-0.202444 -0.27758,-0.435251 -0.24873,-0.379314 -0.28097,-0.419784 -0.31037,-0.389588 -0.018,0.01853 -0.0778,0.0839 -0.13286,0.145267 -0.055,0.06136 -0.17079,0.171001 -0.25724,0.243639 l -0.15719,0.132071 0.12845,0.05979 c 0.18932,0.08813 0.50515,0.196722 0.66039,0.227066 0.14169,0.0277 0.3464,0.03775 0.3464,0.01701 z"
       id="path628" /><path
       d="m 81.22606,68.969251 q 0.01378,0.186035 -0.192925,0.186035 -0.130914,0 -0.757921,-0.151584 -0.620116,-0.151584 -0.76481,-0.206705 -1.440049,0.564995 -2.762965,0.564995 -2.129067,0 -3.493324,-1.419378 -1.350476,-1.398708 -1.350476,-3.534666 0,-2.184189 1.309135,-3.624237 1.350476,-1.48828 3.507104,-1.48828 1.047309,0 1.970594,0.39963 0.999076,0.440972 1.570962,1.240234 0.117133,0.165364 0.117133,0.234266 0,0.220486 -0.620117,0.992187 -0.613226,0.76481 -0.792371,0.76481 -0.04134,0 -0.316949,-0.282497 -0.337619,-0.337619 -0.689018,-0.523654 -0.523654,-0.282498 -1.157551,-0.282498 -1.033528,0 -1.639865,0.771701 -0.564995,0.709689 -0.564995,1.770778 0,1.1231 0.585666,1.777667 0.606336,0.675239 1.715656,0.675239 0.702799,0 1.570963,-0.3514 -0.02067,-0.227376 -0.124024,-1.157551 -0.08957,-0.716579 -0.08957,-1.157551 0,-0.130914 0.08957,-0.158474 0.03445,-0.01378 0.110243,-0.01378 0.199816,0 0.599446,0.04134 0.406521,0.03445 0.613227,0.03445 0.220486,0 0.661458,-0.02756 0.440972,-0.03445 0.661458,-0.03445 0.172254,0 0.172254,0.227376 0,0.330729 -0.04134,0.999077 -0.03445,0.668348 -0.03445,0.999077 0,0.888833 0.130914,2.659611 z"
       id="path562"
       style="font-size:14.1111px;font-family:'Berlin Sans FB Demi';-inkscape-font-specification:'Berlin Sans FB Demi';letter-spacing:0.79375px;word-spacing:0px;fill:#000000;fill-opacity:1;stroke:none;stroke-width:0.264583;stroke-opacity:1;paint-order:markers stroke fill" /><path
       d="m 87.504397,64.897152 q 0,0.268717 -0.296278,0.268717 -0.130913,0 -0.38585,-0.01378 -0.248047,-0.02067 -0.37207,-0.02067 -0.571885,0 -0.778591,0.179145 -0.206706,0.179144 -0.206706,0.723469 0,0.296278 0.0069,0.902614 0.01378,0.599447 0.01378,0.895725 0,0.199815 0.02756,0.599446 0.02756,0.39274 0.02756,0.585666 0,0.165364 -0.227376,0.186035 -0.330729,0.02756 -1.012857,0.02756 -0.654568,0 -1.047308,-0.04134 -0.227376,-0.02756 -0.227376,-0.227376 0,-0.551215 0.0069,-1.646754 0.0069,-1.10243 0.0069,-1.653645 0,-1.619194 -0.296278,-2.666502 -0.01378,-0.06201 -0.01378,-0.103353 0,-0.103352 0.103352,-0.137803 0.378961,-0.04134 1.10932,-0.151584 1.08865,-0.213596 1.123101,-0.213596 0.124023,0 0.158474,0.434082 0.03445,0.434081 0.124023,0.434081 -0.09646,0 0.564995,-0.358289 0.661458,-0.36518 1.274685,-0.36518 0.38585,0 0.38585,0.165364 0,0.199816 -0.04134,0.564996 -0.04134,0.39274 -0.04823,0.564995 0,0.199815 0.0069,0.530544 0.01378,0.406521 0.01378,0.537435 z"
       id="path564"
       style="font-size:14.1111px;font-family:'Berlin Sans FB Demi';-inkscape-font-specification:'Berlin Sans FB Demi';letter-spacing:0.79375px;word-spacing:0px;fill:#000000;fill-opacity:1;stroke:none;stroke-width:0.264583;stroke-opacity:1;paint-order:markers stroke fill" /><path
       d="m 95.41571,65.448366 q 0,0.695909 -0.447862,0.792372 -0.07579,0.01378 -1.426269,0.151584 -0.813041,0.08957 -2.425345,0.213596 0.09646,0.447862 0.585666,0.682128 0.399631,0.192925 0.909504,0.192925 0.613227,0 1.233344,-0.330729 0.261827,-0.165364 0.523654,-0.330729 0.144694,0.0689 0.482313,0.702799 0.344509,0.633897 0.344509,0.806152 0,0.04823 -0.103353,0.158474 -0.840602,0.902615 -2.61138,0.902615 -1.639864,0 -2.645831,-0.957736 -1.033528,-0.971516 -1.033528,-2.5976 0,-1.584743 0.923285,-2.5976 0.950845,-1.047308 2.521808,-1.047308 1.322915,0 2.2462,0.964626 0.923285,0.964626 0.923285,2.294431 z m -2.411565,-0.420301 q 0,-0.427191 -0.303168,-0.75103 -0.303168,-0.323839 -0.72347,-0.323839 -0.434081,0 -0.716579,0.36518 -0.261827,0.337619 -0.261827,0.792371 0,0.186035 0.192925,0.186035 0.509874,0 1.584743,-0.158474 0.227376,-0.03445 0.227376,-0.110243 z"
       id="path566"
       style="font-size:14.1111px;font-family:'Berlin Sans FB Demi';-inkscape-font-specification:'Berlin Sans FB Demi';letter-spacing:0.79375px;word-spacing:0px;fill:#000000;fill-opacity:1;stroke:none;stroke-width:0.264583;stroke-opacity:1;paint-order:markers stroke fill" /><path
       d="m 103.27879,65.448366 q 0,0.695909 -0.44786,0.792372 -0.0758,0.01378 -1.42627,0.151584 -0.81304,0.08957 -2.425345,0.213596 0.09646,0.447862 0.585666,0.682128 0.399631,0.192925 0.909499,0.192925 0.61323,0 1.23335,-0.330729 0.26183,-0.165364 0.52365,-0.330729 0.1447,0.0689 0.48232,0.702799 0.3445,0.633897 0.3445,0.806152 0,0.04823 -0.10335,0.158474 -0.8406,0.902615 -2.61138,0.902615 -1.639862,0 -2.645829,-0.957736 -1.033528,-0.971516 -1.033528,-2.5976 0,-1.584743 0.923285,-2.5976 0.950845,-1.047308 2.521802,-1.047308 1.32292,0 2.24621,0.964626 0.92328,0.964626 0.92328,2.294431 z m -2.41156,-0.420301 q 0,-0.427191 -0.30317,-0.75103 -0.30317,-0.323839 -0.723472,-0.323839 -0.434081,0 -0.716579,0.36518 -0.261827,0.337619 -0.261827,0.792371 0,0.186035 0.192925,0.186035 0.509874,0 1.584743,-0.158474 0.22738,-0.03445 0.22738,-0.110243 z"
       id="path568"
       style="font-size:14.1111px;font-family:'Berlin Sans FB Demi';-inkscape-font-specification:'Berlin Sans FB Demi';letter-spacing:0.79375px;word-spacing:0px;fill:#000000;fill-opacity:1;stroke:none;stroke-width:0.264583;stroke-opacity:1;paint-order:markers stroke fill" /><path
       d="m 111.6793,68.989922 q 0,0.186035 -0.19292,0.213596 -0.19293,0.02756 -1.00597,0.02756 -0.86816,0 -1.07487,-0.04134 -0.20671,-0.04134 -0.20671,-0.282497 0,-0.323839 0.0207,-0.978407 0.0207,-0.654567 0.0207,-0.985296 0,-0.254937 -0.0138,-0.757921 -0.0138,-0.509874 -0.0138,-0.76481 0,-0.943956 -0.81993,-0.943956 -0.26871,0 -0.627,0.234266 -0.38585,0.261828 -0.38585,0.516764 v 3.720701 q 0,0.227376 -0.2136,0.254937 -0.24116,0.02756 -0.98529,0.02756 -0.80616,0 -1.04731,-0.04134 -0.2136,-0.03445 -0.2136,-0.227376 0,-0.537434 0.007,-1.619194 0.007,-1.081759 0.007,-1.626083 0,-1.715657 -0.26872,-2.694063 -0.0138,-0.06201 -0.0138,-0.103353 0,-0.110243 0.10336,-0.151584 0.43408,-0.04823 1.15755,-0.151584 1.09553,-0.213596 1.23334,-0.213596 0.0758,0 0.11713,0.468533 0.0413,0.461642 0.11713,0.461642 -0.0758,0 0.73725,-0.475422 0.81994,-0.482313 1.43316,-0.482313 0.87506,0 1.46072,0.413411 0.65457,0.475423 0.65457,1.322915 v 2.19797 q 0,0.447862 0.007,1.343586 0.007,0.888834 0.007,1.336696 z"
       id="path570"
       style="font-size:14.1111px;font-family:'Berlin Sans FB Demi';-inkscape-font-specification:'Berlin Sans FB Demi';letter-spacing:0.79375px;word-spacing:0px;fill:#000000;fill-opacity:1;stroke:none;stroke-width:0.264583;stroke-opacity:1;paint-order:markers stroke fill" /><path
       d="m 85.531532,77.183886 q 0,1.267794 -0.792372,2.101507 -0.902614,0.957735 -3.169485,0.957735 -0.172255,0 -0.496093,-0.0069 -0.330729,0 -0.489204,0 -2.542478,0 -3.024791,-0.103353 -0.199816,-0.04134 -0.199816,-0.213595 0,-0.73725 0.08268,-2.23242 0.08957,-1.495171 0.08957,-2.239311 0,-0.799261 -0.08268,-3.004121 -0.02067,-0.564995 -0.07579,-1.694985 l -0.0069,-0.09646 q -0.0069,-0.130914 0.213595,-0.158474 0.227377,-0.02756 1.598523,-0.02756 2.19797,0 2.57004,0.01378 1.694985,0.06201 2.501137,0.551215 1.067979,0.654568 1.067979,2.21175 0,0.406521 -0.248047,0.861273 -0.179145,0.323839 -0.468532,0.647677 -0.254937,0.282498 -0.254937,0.261827 0,0.04823 0.179145,0.151585 0.482313,0.275607 0.75792,0.875053 0.248047,0.537435 0.248047,1.143771 z m -2.96278,-3.879175 q 0,-0.592556 -0.592556,-0.785481 -0.330729,-0.103352 -1.088649,-0.103352 -0.744141,0 -0.744141,0.110242 0,0.130914 -0.02756,0.399631 -0.02067,0.261827 -0.02067,0.392741 0,0.689018 0.117133,0.771701 0.07579,0.06201 0.875054,0.06201 1.48139,0 1.48139,-0.847493 z m 0.206705,3.851614 q 0,-0.620116 -0.516764,-0.840602 -0.330728,-0.137804 -1.074868,-0.137804 -0.888834,0 -0.964626,0.0689 -0.07579,0.06201 -0.07579,0.840602 0,0.813042 0.08957,0.902615 0.08957,0.08268 0.992187,0.08268 0.74414,0 1.047308,-0.117133 0.502983,-0.199816 0.502983,-0.799262 z"
       id="path572"
       style="font-size:14.1111px;font-family:'Berlin Sans FB Demi';-inkscape-font-specification:'Berlin Sans FB Demi';letter-spacing:0.79375px;word-spacing:0px;fill:#000000;fill-opacity:1;stroke:none;stroke-width:0.264583;stroke-opacity:1;paint-order:markers stroke fill" /><path
       d="m 91.720298,75.867861 q 0,0.268717 -0.296278,0.268717 -0.130914,0 -0.385851,-0.01378 -0.248047,-0.02067 -0.37207,-0.02067 -0.571885,0 -0.778591,0.179145 -0.206705,0.179144 -0.206705,0.723469 0,0.296278 0.0069,0.902614 0.01378,0.599447 0.01378,0.895725 0,0.199815 0.02756,0.599446 0.02756,0.39274 0.02756,0.585666 0,0.165364 -0.227376,0.186035 -0.330729,0.02756 -1.012858,0.02756 -0.654567,0 -1.047308,-0.04134 -0.227376,-0.02756 -0.227376,-0.227376 0,-0.551215 0.0069,-1.646754 0.0069,-1.10243 0.0069,-1.653645 0,-1.619194 -0.296278,-2.666502 -0.01378,-0.06201 -0.01378,-0.103353 0,-0.103352 0.103353,-0.137803 0.37896,-0.04134 1.10932,-0.151584 1.088649,-0.213596 1.1231,-0.213596 0.124023,0 0.158474,0.434082 0.03445,0.434081 0.124023,0.434081 -0.09646,0 0.564996,-0.358289 0.661457,-0.36518 1.274684,-0.36518 0.38585,0 0.38585,0.165364 0,0.199816 -0.04134,0.564996 -0.04134,0.39274 -0.04823,0.564995 0,0.199815 0.0069,0.530544 0.01378,0.406521 0.01378,0.537435 z"
       id="path574"
       style="font-size:14.1111px;font-family:'Berlin Sans FB Demi';-inkscape-font-specification:'Berlin Sans FB Demi';letter-spacing:0.79375px;word-spacing:0px;fill:#000000;fill-opacity:1;stroke:none;stroke-width:0.264583;stroke-opacity:1;paint-order:markers stroke fill" /><path
       d="m 100.4102,73.897267 q 0,0.509874 -0.0482,1.529622 -0.0482,1.019747 -0.0482,1.529621 0,0.496093 0.0345,1.48828 0.0344,0.992187 0.0344,1.48139 0,0.186035 -0.17226,0.234266 -0.261822,0.0689 -1.109315,0.0689 -0.75103,0 -1.047308,-0.04134 -0.130914,-0.02067 -0.165365,-0.165365 -0.02067,-0.206705 -0.04134,-0.413411 -0.03445,-0.316948 -0.09646,-0.316948 0.09646,0 -0.695908,0.468532 -0.792372,0.468533 -1.440049,0.468533 -1.825899,0 -2.163518,-1.646754 -0.151584,-0.764811 -0.151584,-2.21864 0,-1.570962 0.254936,-2.480467 0.07579,-0.282498 0.282498,-0.282498 0.316949,0 0.964626,0.0069 0.647677,0.0069 0.964626,0.0069 0.213596,0 0.213596,0.179145 0,0.04823 -0.01378,0.144694 -0.144694,0.937065 -0.144694,1.901691 0,1.198892 0.07579,1.639864 0.124023,0.75792 0.902614,0.75792 0.303168,0 0.654567,-0.268717 0.35829,-0.268717 0.372071,-0.558105 0.01378,-0.254937 0.01378,-3.458873 0,-0.227376 0.03445,-0.268717 0.04134,-0.0689 0.248046,-0.0689 0.33762,0 1.012858,0.0069 0.682128,0.0069 1.019743,0.0069 0.20671,0 0.24116,0.103353 0.0138,0.05512 0.0138,0.165364 z"
       id="path576"
       style="font-size:14.1111px;font-family:'Berlin Sans FB Demi';-inkscape-font-specification:'Berlin Sans FB Demi';letter-spacing:0.79375px;word-spacing:0px;fill:#000000;fill-opacity:1;stroke:none;stroke-width:0.264583;stroke-opacity:1;paint-order:markers stroke fill" /><path
       d="m 106.37159,74.586286 q 0,0.0689 -0.10336,0.186035 -0.19292,-0.04823 -0.38585,-0.04823 -0.40652,0 -0.68212,0.179145 -0.33073,0.206705 -0.33073,0.585665 0,0.241157 0.3514,0.613227 0.53054,0.558105 0.65456,0.75103 0.3514,0.523654 0.3514,1.1231 0,0.3514 -0.1378,0.74414 -0.15847,0.434082 -0.39963,0.633897 -0.50987,0.440972 -1.192,0.74414 -0.73725,0.316949 -1.35737,0.316949 -0.1378,0 -0.62012,-0.74414 -0.47542,-0.75103 -0.47542,-0.916395 0,-0.06201 0.0758,-0.07579 0.48232,-0.08957 0.97152,-0.179145 0.60634,-0.192925 0.60634,-0.633897 0,-0.303168 -0.3514,-0.702799 -0.62701,-0.695908 -0.65457,-0.737249 -0.3514,-0.496094 -0.3514,-1.047309 0,-1.033528 1.04731,-1.756997 0.93706,-0.640787 2.00504,-0.640787 0.11024,0 0.54433,0.74414 0.43408,0.73725 0.43408,0.861273 z"
       id="path578"
       style="font-size:14.1111px;font-family:'Berlin Sans FB Demi';-inkscape-font-specification:'Berlin Sans FB Demi';letter-spacing:0.79375px;word-spacing:0px;fill:#000000;fill-opacity:1;stroke:none;stroke-width:0.264583;stroke-opacity:1;paint-order:markers stroke fill" /><path
       d="m 112.18828,74.586286 q 0,0.0689 -0.10335,0.186035 -0.19292,-0.04823 -0.38585,-0.04823 -0.40652,0 -0.68213,0.179145 -0.33073,0.206705 -0.33073,0.585665 0,0.241157 0.3514,0.613227 0.53055,0.558105 0.65457,0.75103 0.3514,0.523654 0.3514,1.1231 0,0.3514 -0.1378,0.74414 -0.15848,0.434082 -0.39963,0.633897 -0.50988,0.440972 -1.19201,0.74414 -0.73725,0.316949 -1.35736,0.316949 -0.13781,0 -0.62012,-0.74414 -0.47542,-0.75103 -0.47542,-0.916395 0,-0.06201 0.0758,-0.07579 0.48231,-0.08957 0.97152,-0.179145 0.60633,-0.192925 0.60633,-0.633897 0,-0.303168 -0.3514,-0.702799 -0.627,-0.695908 -0.65457,-0.737249 -0.35139,-0.496094 -0.35139,-1.047309 0,-1.033528 1.0473,-1.756997 0.93707,-0.640787 2.00505,-0.640787 0.11024,0 0.54432,0.74414 0.43408,0.73725 0.43408,0.861273 z"
       id="path580"
       style="font-size:14.1111px;font-family:'Berlin Sans FB Demi';-inkscape-font-specification:'Berlin Sans FB Demi';letter-spacing:0.79375px;word-spacing:0px;fill:#000000;fill-opacity:1;stroke:none;stroke-width:0.264583;stroke-opacity:1;paint-order:markers stroke fill" /><path
       d="m 120.28563,76.419075 q 0,0.695909 -0.44786,0.792372 -0.0758,0.01378 -1.42627,0.151584 -0.81304,0.08957 -2.42534,0.213596 0.0965,0.447862 0.58566,0.682128 0.39963,0.192925 0.90951,0.192925 0.61322,0 1.23334,-0.330729 0.26183,-0.165364 0.52365,-0.330729 0.1447,0.0689 0.48232,0.702799 0.34451,0.633897 0.34451,0.806152 0,0.04823 -0.10336,0.158474 -0.8406,0.902615 -2.61138,0.902615 -1.63986,0 -2.64583,-0.957736 -1.03353,-0.971516 -1.03353,-2.5976 0,-1.584743 0.92329,-2.5976 0.95084,-1.047308 2.52181,-1.047308 1.32291,0 2.2462,0.964626 0.92328,0.964626 0.92328,2.294431 z m -2.41156,-0.420301 q 0,-0.427191 -0.30317,-0.75103 -0.30317,-0.323839 -0.72347,-0.323839 -0.43408,0 -0.71658,0.36518 -0.26183,0.337619 -0.26183,0.792371 0,0.186035 0.19293,0.186035 0.50987,0 1.58474,-0.158474 0.22738,-0.03445 0.22738,-0.110243 z"
       id="path582"
       style="font-size:14.1111px;font-family:'Berlin Sans FB Demi';-inkscape-font-specification:'Berlin Sans FB Demi';letter-spacing:0.79375px;word-spacing:0px;fill:#000000;fill-opacity:1;stroke:none;stroke-width:0.264583;stroke-opacity:1;paint-order:markers stroke fill" /><path
       d="m 130.43075,74.586286 q 0,0.0689 -0.10336,0.186035 -0.19292,-0.04823 -0.38585,-0.04823 -0.40652,0 -0.68213,0.179145 -0.33072,0.206705 -0.33072,0.585665 0,0.241157 0.35139,0.613227 0.53055,0.558105 0.65457,0.75103 0.3514,0.523654 0.3514,1.1231 0,0.3514 -0.1378,0.74414 -0.15848,0.434082 -0.39963,0.633897 -0.50988,0.440972 -1.192,0.74414 -0.73725,0.316949 -1.35737,0.316949 -0.1378,0 -0.62012,-0.74414 -0.47542,-0.75103 -0.47542,-0.916395 0,-0.06201 0.0758,-0.07579 0.48231,-0.08957 0.97152,-0.179145 0.60633,-0.192925 0.60633,-0.633897 0,-0.303168 -0.3514,-0.702799 -0.627,-0.695908 -0.65456,-0.737249 Q 126.4,75.929875 126.4,75.37866 q 0,-1.033528 1.04731,-1.756997 0.93706,-0.640787 2.00504,-0.640787 0.11024,0 0.54432,0.74414 0.43409,0.73725 0.43409,0.861273 z"
       id="path586"
       style="font-size:14.1111px;font-family:'Berlin Sans FB Demi';-inkscape-font-specification:'Berlin Sans FB Demi';letter-spacing:0.79375px;word-spacing:0px;fill:#000000;fill-opacity:1;stroke:none;stroke-width:0.264583;stroke-opacity:1;paint-order:markers stroke fill" /></g></svg>
